<svg width="3026" height="1604" viewBox="0 0 3026 1604" fill="none" xmlns="http://www.w3.org/2000/svg">
<rect width="3026" height="1604" fill="#FF659D"/>
<path d="M1148.67 1061C1155.19 1061 1160.26 1057.38 1163.16 1050.86L1237.8 874.81C1262.44 814.678 1285.63 745.129 1297.23 698.762H1301.57C1302.3 746.578 1303.02 841.484 1306.65 906.687L1316.07 1049.41C1316.79 1057.38 1321.14 1061 1328.39 1061H1433.46C1440.71 1061 1445.78 1057.38 1448.68 1051.58L1664.63 557.489C1668.26 548.796 1663.91 543 1654.49 543H1557.38C1550.14 543 1545.79 546.622 1542.89 553.143L1482.74 707.456C1461.73 762.516 1426.94 868.289 1408.1 931.319H1403.75C1403.75 867.565 1400.85 769.761 1397.96 721.945L1385.64 561.836C1384.91 553.867 1380.56 550.245 1372.59 550.245H1270.41C1263.89 550.245 1258.82 553.867 1255.92 560.387L1193.6 713.976C1171.13 770.485 1137.08 866.841 1117.51 931.319H1113.89C1114.61 870.463 1114.61 769.036 1112.44 719.048L1105.19 555.316C1105.19 547.347 1099.39 543 1092.15 543H999.388C991.417 543 986.344 548.071 987.069 556.041L1030.55 1049.41C1031.27 1057.38 1035.62 1061 1043.59 1061H1148.67Z" fill="#FFCC6E"/>
<path d="M1814.82 1061C1937.28 1061 2003.95 1005.22 2020.62 905.238C2030.04 849.453 2011.2 808.158 1970.62 787.148C2006.13 769.036 2029.32 734.986 2036.56 692.966C2051.06 608.203 2000.33 543 1898.88 543H1720.61C1713.36 543 1709.01 547.347 1707.56 554.592L1620.6 1047.23C1619.16 1055.2 1623.5 1061 1632.2 1061H1814.82ZM1771.34 838.586H1850.32C1895.25 838.586 1910.47 860.32 1905.4 894.371C1898.15 937.839 1867.72 958.849 1827.13 958.849H1750.32L1771.34 838.586ZM1806.84 642.253H1873.51C1914.1 642.253 1927.14 661.089 1921.34 691.517C1915.54 725.568 1892.36 745.129 1855.4 745.129H1788.73L1806.84 642.253Z" fill="#FFCC6E"/>
</svg>
